<svg width="376" height="57" viewBox="0 0 376 57" fill="none" xmlns="http://www.w3.org/2000/svg">
<path d="M26.0605 22.3399C24.987 22.3399 23.9715 22.138 23.0142 21.734C22.0568 21.3245 21.2018 20.7075 20.4492 19.8829C20.9639 19.2244 21.5034 18.6876 22.0679 18.2726C22.6379 17.8575 23.2521 17.5504 23.9106 17.3512C24.5747 17.152 25.3135 17.0551 26.127 17.0606C26.9349 17.0606 27.6654 17.1603 28.3184 17.3595C28.9714 17.5532 29.5745 17.8548 30.1279 18.2643C30.6868 18.6738 31.2236 19.1939 31.7383 19.8248C30.9857 20.6604 30.1335 21.2885 29.1816 21.7091C28.2298 22.1297 27.1895 22.3399 26.0605 22.3399ZM20.5986 27.7272C20.2832 27.6165 19.9567 27.5252 19.6191 27.4532C19.2871 27.3758 18.9136 27.337 18.4985 27.337H17.5439C17.0514 27.337 16.6696 27.2595 16.3984 27.1046C16.1328 26.9496 16 26.7283 16 26.4405C16 26.2413 16.0443 26.0698 16.1328 25.9259C16.2214 25.7765 16.3486 25.6215 16.5146 25.461C16.6917 25.284 16.8965 25.082 17.1289 24.8551C17.3613 24.6227 17.6048 24.3404 17.8594 24.0084C18.1139 23.6764 18.363 23.2724 18.6064 22.7965C18.7891 22.4368 18.9744 22.0965 19.1626 21.7755C19.3563 21.449 19.55 21.1419 19.7437 20.8541C20.1974 21.33 20.7231 21.7534 21.3208 22.1241C21.924 22.4949 22.5189 22.7854 23.1055 22.9957C23.0446 23.538 22.9007 24.1025 22.6738 24.6891C22.4469 25.2701 22.1536 25.8263 21.7939 26.3575C21.4398 26.8888 21.0413 27.3453 20.5986 27.7272ZM26.0771 29.5865C25.4518 29.5865 24.8818 29.5035 24.3672 29.3375C23.8525 29.1715 23.3822 28.9778 22.9561 28.7564C22.5299 28.5351 22.1315 28.3497 21.7607 28.2003C22.2256 27.7742 22.6268 27.2927 22.9644 26.756C23.3075 26.2136 23.5786 25.6492 23.7778 25.0626C23.9826 24.476 24.1099 23.8922 24.1597 23.3111C24.4696 23.3886 24.785 23.4467 25.106 23.4855C25.4269 23.5242 25.7534 23.5408 26.0854 23.5353C26.7495 23.5353 27.4053 23.455 28.0527 23.2945C28.0915 23.9033 28.2132 24.5037 28.418 25.0958C28.6227 25.6824 28.8994 26.2385 29.248 26.7643C29.5967 27.29 30.009 27.7576 30.4849 28.1671C30.1086 28.3497 29.7018 28.5517 29.2646 28.7731C28.8275 28.9944 28.3433 29.1853 27.812 29.3458C27.2863 29.5063 26.708 29.5865 26.0771 29.5865ZM31.5391 27.6856C31.0798 27.2706 30.6785 26.803 30.3354 26.2828C29.9979 25.7626 29.724 25.2175 29.5137 24.6476C29.3034 24.0776 29.1733 23.5159 29.1235 22.9625C29.4777 22.8297 29.8485 22.6526 30.2358 22.4313C30.6232 22.2044 31.0023 21.9498 31.373 21.6676C31.7493 21.3798 32.0924 21.0755 32.4023 20.7545C32.5739 21.0257 32.7676 21.3715 32.9834 21.7921C33.1992 22.2071 33.4233 22.6581 33.6558 23.1451C33.8882 23.6321 34.1178 24.1218 34.3447 24.6144C34.5771 25.1013 34.7957 25.5496 35.0005 25.9591C35.2052 26.3686 35.3823 26.7006 35.5317 26.9552C35.3657 27.0548 35.1333 27.1323 34.8345 27.1876C34.5356 27.2374 34.223 27.2651 33.8965 27.2706C33.4538 27.2983 33.0387 27.3509 32.6514 27.4283C32.2695 27.5003 31.8988 27.586 31.5391 27.6856ZM18.3491 30.923C17.7625 30.923 17.2756 30.804 16.8882 30.566C16.5063 30.3281 16.3154 29.9933 16.3154 29.5616C16.3154 29.2407 16.4372 28.9972 16.6807 28.8312C16.9297 28.6651 17.2064 28.5517 17.5107 28.4908C17.7653 28.43 18.0033 28.3829 18.2246 28.3497C18.4515 28.3165 18.6756 28.2667 18.897 28.2003C19.4282 28.2888 19.9705 28.4521 20.5239 28.69C21.0773 28.9335 21.5947 29.1936 22.0762 29.4703C21.6833 29.9075 21.1465 30.2589 20.4658 30.5245C19.7907 30.7901 19.0851 30.923 18.3491 30.923ZM33.855 30.9396C33.368 30.9396 32.881 30.8787 32.394 30.7569C31.9126 30.6352 31.4671 30.4609 31.0576 30.234C30.6536 30.0126 30.3244 29.7498 30.0698 29.4454C30.3631 29.2683 30.6924 29.0912 31.0576 28.9142C31.4284 28.7426 31.8047 28.5932 32.1865 28.4659C32.5739 28.3386 32.9419 28.2501 33.2905 28.2003C33.5285 28.228 33.7443 28.2501 33.938 28.2667C34.1372 28.2833 34.353 28.2999 34.5854 28.3165C34.8123 28.3497 35.0282 28.4217 35.2329 28.5323C35.4377 28.6375 35.6037 28.7758 35.731 28.9474C35.8582 29.1245 35.9219 29.332 35.9219 29.5699C35.9219 30.0071 35.7254 30.3447 35.3325 30.5826C34.9451 30.8206 34.4526 30.9396 33.855 30.9396ZM36.4531 26.6065C36.182 26.0698 35.908 25.5247 35.6313 24.9713C35.3602 24.4124 35.1222 23.942 34.9175 23.5602C35.0835 23.4384 35.244 23.2973 35.3989 23.1368C35.5594 22.9708 35.7061 22.7605 35.8389 22.506C35.9772 22.2514 36.1017 21.9304 36.2124 21.5431C36.3784 20.9177 36.6274 20.3699 36.9595 19.8995C37.297 19.4236 37.7148 19.0556 38.2129 18.7955C38.7165 18.5354 39.3031 18.4054 39.9727 18.4054C40.7474 18.4054 41.4253 18.6101 42.0063 19.0196C42.5929 19.4291 43.0467 20.0019 43.3677 20.7379C43.6886 21.4684 43.8491 22.3206 43.8491 23.2945C43.8491 23.7206 43.6969 24.0914 43.3926 24.4068C43.0882 24.7167 42.6566 24.9575 42.0977 25.129C41.5443 25.3006 40.8885 25.3863 40.1304 25.3863C39.6047 25.3863 39.1426 25.45 38.7441 25.5773C38.3457 25.7045 37.9666 25.865 37.6069 26.0587C37.2528 26.2468 36.8682 26.4295 36.4531 26.6065ZM40.1802 22.506C40.3905 22.506 40.5731 22.4285 40.728 22.2735C40.8885 22.1186 40.9688 21.9277 40.9688 21.7008C40.9688 21.485 40.8885 21.2996 40.728 21.1446C40.5731 20.9842 40.3905 20.9039 40.1802 20.9039C39.9533 20.9039 39.7624 20.9842 39.6074 21.1446C39.4525 21.2996 39.375 21.485 39.375 21.7008C39.375 21.9277 39.4525 22.1186 39.6074 22.2735C39.7624 22.4285 39.9533 22.506 40.1802 22.506Z" fill="#3C3C43" fill-opacity="0.6"/>
<rect x="59.8491" y="22" width="258.576" height="4" rx="2" fill="#787880" fill-opacity="0.16"/>
<g filter="url(#filter0_dd_29_26)">
<rect width="28" height="28" rx="14" transform="matrix(-1 0 0 1 87.8491 10)" fill="white"/>
</g>
<path d="M347.823 32.4668C347.491 32.4668 347.159 32.4115 346.827 32.3008C346.495 32.1901 346.118 31.9494 345.698 31.5786L342.286 28.7231C342.214 28.7231 342.142 28.7259 342.07 28.7314C341.998 28.7314 341.929 28.7314 341.863 28.7314C341.033 28.7314 340.269 28.6457 339.572 28.4741C338.88 28.297 338.255 28.0148 337.696 27.6274C337.142 27.2401 336.661 26.7254 336.251 26.0835C335.72 26.089 335.283 25.9535 334.94 25.6768C334.597 25.3945 334.425 25.0182 334.425 24.5479C334.425 24.1217 334.575 23.7786 334.874 23.5186C335.178 23.2529 335.557 23.1257 336.011 23.1367C336.387 22.0521 336.877 21.1556 337.48 20.4473C338.083 19.7389 338.775 19.2132 339.555 18.8701C340.341 18.5215 341.19 18.3472 342.104 18.3472C342.801 18.3472 343.451 18.4274 344.054 18.5879C344.657 18.7428 345.238 18.9587 345.797 19.2354C346.362 19.5065 346.935 19.8192 347.516 20.1733C348.102 20.5275 348.725 20.9038 349.383 21.3022C349.854 21.5679 350.28 21.8003 350.662 21.9995C351.049 22.1987 351.414 22.2983 351.757 22.2983C351.995 22.2983 352.2 22.2513 352.372 22.1572C352.549 22.0576 352.729 21.9248 352.911 21.7588L348.213 18.7705C347.864 18.5492 347.502 18.3057 347.125 18.04C346.755 17.7689 346.439 17.5033 346.179 17.2432C345.925 16.9775 345.797 16.7368 345.797 16.521C345.797 16.2775 345.905 16.0562 346.121 15.8569C346.337 15.6522 346.614 15.4751 346.951 15.3257C347.289 15.1707 347.64 15.0545 348.005 14.9771C348.376 14.8996 348.714 14.8608 349.018 14.8608C349.776 14.8608 350.529 15.0573 351.276 15.4502C352.023 15.8431 352.695 16.4601 353.293 17.3013L355.368 20.2314C356.065 20.2148 356.696 20.3255 357.261 20.5635C357.825 20.8014 358.312 21.139 358.722 21.5762C359.131 22.0133 359.447 22.5225 359.668 23.1035C359.889 23.6846 360 24.3044 360 24.9629C360 25.6989 359.881 26.2716 359.643 26.6812C359.411 27.0851 359.059 27.3701 358.589 27.5361C358.124 27.6966 357.546 27.7769 356.854 27.7769C356.378 27.7769 355.941 27.7243 355.542 27.6191C355.144 27.514 354.771 27.3729 354.422 27.1958C354.073 27.0187 353.741 26.825 353.426 26.6147C353.066 26.7863 352.737 26.9551 352.438 27.1211C352.145 27.2871 351.865 27.4504 351.6 27.6108C351.362 27.5666 351.124 27.5361 350.886 27.5195C350.648 27.4974 350.404 27.4863 350.155 27.4863C349.851 27.4863 349.547 27.5002 349.242 27.5278C348.943 27.5555 348.656 27.597 348.379 27.6523L347.814 26.3491C347.217 24.9712 346.431 23.9447 345.457 23.2695C344.483 22.5944 343.362 22.2568 342.095 22.2568C341.691 22.2568 341.329 22.3066 341.008 22.4062C340.692 22.5059 340.535 22.7023 340.535 22.9956C340.535 23.1782 340.593 23.3138 340.709 23.4023C340.825 23.4909 340.977 23.5352 341.166 23.5352H342.17C342.834 23.5352 343.451 23.6597 344.021 23.9087C344.597 24.1577 345.111 24.5202 345.565 24.9961C346.019 25.472 346.401 26.0475 346.71 26.7227L347.657 28.8145C347.906 28.7646 348.144 28.7148 348.371 28.665C348.603 28.6097 348.866 28.5654 349.159 28.5322C349.452 28.4935 349.812 28.4741 350.238 28.4741C351.085 28.4741 351.807 28.5876 352.405 28.8145C353.002 29.0413 353.459 29.3512 353.774 29.7441C354.09 30.1315 354.248 30.5659 354.248 31.0474C354.248 31.4956 354.082 31.8442 353.75 32.0933C353.417 32.3423 352.944 32.4668 352.33 32.4668C352.053 32.4668 351.815 32.4419 351.616 32.3921C351.417 32.3423 351.201 32.2952 350.969 32.251C350.736 32.2067 350.435 32.1846 350.064 32.1846C349.522 32.1846 349.084 32.2316 348.752 32.3257C348.426 32.4198 348.116 32.4668 347.823 32.4668ZM341.489 33.1392C340.604 33.1392 339.896 32.9704 339.364 32.6328C338.839 32.3008 338.576 31.8581 338.576 31.3047C338.576 30.9339 338.708 30.6379 338.974 30.4165C339.245 30.1896 339.611 30.0762 340.07 30.0762C340.308 30.0762 340.54 30.0872 340.767 30.1094C340.994 30.126 341.201 30.1453 341.39 30.1675C341.583 30.1896 341.747 30.2007 341.879 30.2007C341.962 30.2007 342.037 30.1979 342.104 30.1924C342.17 30.1868 342.234 30.1813 342.294 30.1758L344.834 32.3174C344.431 32.583 343.966 32.785 343.44 32.9233C342.914 33.0672 342.264 33.1392 341.489 33.1392ZM356.364 24.6392C356.58 24.6392 356.763 24.5589 356.912 24.3984C357.067 24.2324 357.145 24.0415 357.145 23.8257C357.145 23.6154 357.07 23.4355 356.92 23.2861C356.771 23.1367 356.588 23.062 356.373 23.062C356.162 23.062 355.98 23.1423 355.825 23.3027C355.675 23.4632 355.601 23.6486 355.601 23.8589C355.601 24.0692 355.675 24.2518 355.825 24.4067C355.974 24.5617 356.154 24.6392 356.364 24.6392Z" fill="#3C3C43" fill-opacity="0.6"/>
<defs>
<filter id="filter0_dd_29_26" x="46.8491" y="3" width="54" height="54" filterUnits="userSpaceOnUse" color-interpolation-filters="sRGB">
<feFlood flood-opacity="0" result="BackgroundImageFix"/>
<feColorMatrix in="SourceAlpha" type="matrix" values="0 0 0 0 0 0 0 0 0 0 0 0 0 0 0 0 0 0 127 0" result="hardAlpha"/>
<feOffset dy="6"/>
<feGaussianBlur stdDeviation="6.5"/>
<feColorMatrix type="matrix" values="0 0 0 0 0 0 0 0 0 0 0 0 0 0 0 0 0 0 0.12 0"/>
<feBlend mode="normal" in2="BackgroundImageFix" result="effect1_dropShadow_29_26"/>
<feColorMatrix in="SourceAlpha" type="matrix" values="0 0 0 0 0 0 0 0 0 0 0 0 0 0 0 0 0 0 127 0" result="hardAlpha"/>
<feOffset dy="0.5"/>
<feGaussianBlur stdDeviation="2"/>
<feColorMatrix type="matrix" values="0 0 0 0 0 0 0 0 0 0 0 0 0 0 0 0 0 0 0.12 0"/>
<feBlend mode="normal" in2="effect1_dropShadow_29_26" result="effect2_dropShadow_29_26"/>
<feBlend mode="normal" in="SourceGraphic" in2="effect2_dropShadow_29_26" result="shape"/>
</filter>
</defs>
</svg>
